STARTFONT 2.1
COMMENT
COMMENT Converted from OpenType font "Satisfy-Regular.ttf" by "otf2bdf 3.0".
COMMENT
FONT -FreeType-Satisfy-Medium-R-Normal--22-160-100-100-P-106-ISO10646-1
SIZE 16 100 100
FONTBOUNDINGBOX 26 32 -5 -11
STARTPROPERTIES 19
FOUNDRY "FreeType"
FAMILY_NAME "Satisfy"
WEIGHT_NAME "Medium"
SLANT "R"
SETWIDTH_NAME "Normal"
ADD_STYLE_NAME ""
PIXEL_SIZE 22
POINT_SIZE 160
RESOLUTION_X 100
RESOLUTION_Y 100
SPACING "P"
AVERAGE_WIDTH 106
CHARSET_REGISTRY "ISO10646"
CHARSET_ENCODING "1"
FONT_ASCENT 20
FONT_DESCENT 10
COPYRIGHT "Copyright (c) 2011 by Font Diner, Inc. All rights reserved."
_OTF_FONTFILE "Satisfy-Regular.ttf"
_OTF_PSNAME "Satisfy-Regular"
ENDPROPERTIES
CHARS 226
STARTCHAR 0020
ENCODING 32
SWIDTH 270 0
DWIDTH 6 0
BBX 0 0 0 0
BITMAP
ENDCHAR
STARTCHAR 0021
ENCODING 33
SWIDTH 225 0
DWIDTH 5 0
BBX 6 17 0 -1
BITMAP
1C
1C
18
18
18
30
30
30
30
20
60
60
40
00
40
E0
80
ENDCHAR
STARTCHAR 0022
ENCODING 34
SWIDTH 225 0
DWIDTH 5 0
BBX 6 6 1 10
BITMAP
6C
6C
48
C8
D8
D8
ENDCHAR
STARTCHAR 0023
ENCODING 35
SWIDTH 405 0
DWIDTH 9 0
BBX 10 11 0 3
BITMAP
0C80
0980
0900
7FC0
FF80
1200
3600
FF80
A400
6C00
4C00
ENDCHAR
STARTCHAR 0024
ENCODING 36
SWIDTH 270 0
DWIDTH 6 0
BBX 8 16 -1 0
BITMAP
02
04
1F
11
31
33
30
18
18
08
4C
C4
CC
48
30
20
ENDCHAR
STARTCHAR 0025
ENCODING 37
SWIDTH 585 0
DWIDTH 13 0
BBX 13 16 0 0
BITMAP
1818
3430
6660
4640
44C0
4D80
7900
3200
0600
0CE0
0930
1B30
3330
3220
6360
C3C0
ENDCHAR
STARTCHAR 0026
ENCODING 38
SWIDTH 450 0
DWIDTH 10 0
BBX 10 17 -1 -1
BITMAP
03C0
0640
04C0
0580
0700
0E00
0C00
1C00
3C00
3600
6600
C600
C640
C680
C700
7F00
2380
ENDCHAR
STARTCHAR 0027
ENCODING 39
SWIDTH 135 0
DWIDTH 3 0
BBX 3 6 1 10
BITMAP
60
60
40
C0
C0
C0
ENDCHAR
STARTCHAR 0028
ENCODING 40
SWIDTH 225 0
DWIDTH 5 0
BBX 7 21 0 -3
BITMAP
02
04
0C
08
18
10
30
20
20
60
60
60
40
40
C0
C0
C0
40
40
40
20
ENDCHAR
STARTCHAR 0029
ENCODING 41
SWIDTH 180 0
DWIDTH 4 0
BBX 6 21 -2 -3
BITMAP
08
0C
04
04
04
04
04
0C
0C
0C
0C
08
18
18
10
30
20
60
40
80
80
ENDCHAR
STARTCHAR 002A
ENCODING 42
SWIDTH 315 0
DWIDTH 7 0
BBX 7 7 1 9
BITMAP
1C
58
FA
3E
38
EC
4C
ENDCHAR
STARTCHAR 002B
ENCODING 43
SWIDTH 360 0
DWIDTH 8 0
BBX 8 8 0 4
BITMAP
08
08
18
FF
FE
10
30
30
ENDCHAR
STARTCHAR 002C
ENCODING 44
SWIDTH 180 0
DWIDTH 4 0
BBX 3 5 -1 -3
BITMAP
60
E0
60
40
80
ENDCHAR
STARTCHAR 002D
ENCODING 45
SWIDTH 360 0
DWIDTH 8 0
BBX 7 2 0 6
BITMAP
7E
FE
ENDCHAR
STARTCHAR 002E
ENCODING 46
SWIDTH 225 0
DWIDTH 5 0
BBX 3 3 -1 -1
BITMAP
20
E0
40
ENDCHAR
STARTCHAR 002F
ENCODING 47
SWIDTH 270 0
DWIDTH 6 0
BBX 11 16 -2 0
BITMAP
0060
00C0
0180
0100
0300
0200
0600
0400
0C00
1800
1000
3000
2000
6000
4000
C000
ENDCHAR
STARTCHAR 0030
ENCODING 48
SWIDTH 495 0
DWIDTH 11 0
BBX 9 17 1 -1
BITMAP
0F00
1900
3180
3180
6180
6180
C180
C180
C180
C300
C300
C300
C600
C600
CC00
7800
2000
ENDCHAR
STARTCHAR 0031
ENCODING 49
SWIDTH 270 0
DWIDTH 6 0
BBX 6 16 0 0
BITMAP
08
1C
38
18
18
18
10
30
30
30
20
60
60
60
60
E0
ENDCHAR
STARTCHAR 0032
ENCODING 50
SWIDTH 450 0
DWIDTH 10 0
BBX 11 17 -1 -1
BITMAP
07C0
0CC0
1860
18C0
18C0
00C0
0180
0180
0300
0600
0C00
1800
3000
6000
DF80
7F80
0080
ENDCHAR
STARTCHAR 0033
ENCODING 51
SWIDTH 450 0
DWIDTH 10 0
BBX 10 17 0 -1
BITMAP
0F80
18C0
30C0
30C0
3180
0180
0300
0600
1E00
1300
0100
0100
0300
C300
C600
7C00
1000
ENDCHAR
STARTCHAR 0034
ENCODING 52
SWIDTH 450 0
DWIDTH 10 0
BBX 9 16 0 0
BITMAP
0180
0380
0780
0D80
1900
3100
3300
6300
FF80
FF80
0600
0600
0600
0600
0E00
0E00
ENDCHAR
STARTCHAR 0035
ENCODING 53
SWIDTH 450 0
DWIDTH 10 0
BBX 10 17 0 -1
BITMAP
0FC0
1FC0
1040
1000
3000
2000
2E00
7F00
7100
2100
0100
0300
4200
C600
FC00
7800
2000
ENDCHAR
STARTCHAR 0036
ENCODING 54
SWIDTH 495 0
DWIDTH 11 0
BBX 9 17 1 -1
BITMAP
0700
0900
1180
3300
2000
6000
7E00
F300
F300
E300
C300
C300
C200
C600
CC00
7800
2000
ENDCHAR
STARTCHAR 0037
ENCODING 55
SWIDTH 405 0
DWIDTH 9 0
BBX 9 16 1 0
BITMAP
7F80
7F80
4180
0300
0600
0600
0C00
1800
1800
3000
3000
6000
6000
6000
C000
E000
ENDCHAR
STARTCHAR 0038
ENCODING 56
SWIDTH 450 0
DWIDTH 10 0
BBX 10 17 0 -1
BITMAP
0780
08C0
18C0
1880
1980
1B00
1E00
0C00
3E00
6600
6700
C300
C300
8200
C600
FC00
1000
ENDCHAR
STARTCHAR 0039
ENCODING 57
SWIDTH 450 0
DWIDTH 10 0
BBX 10 17 0 -1
BITMAP
0700
1880
1880
3080
30C0
21C0
6180
6180
6280
3780
3D00
0300
4300
4600
EC00
7800
2000
ENDCHAR
STARTCHAR 003A
ENCODING 58
SWIDTH 225 0
DWIDTH 5 0
BBX 4 7 -1 -1
BITMAP
30
70
00
00
20
E0
40
ENDCHAR
STARTCHAR 003B
ENCODING 59
SWIDTH 225 0
DWIDTH 5 0
BBX 4 9 -1 -3
BITMAP
70
70
00
00
60
E0
60
40
80
ENDCHAR
STARTCHAR 003C
ENCODING 60
SWIDTH 270 0
DWIDTH 6 0
BBX 7 8 0 3
BITMAP
0E
38
70
C0
C0
60
60
30
ENDCHAR
STARTCHAR 003D
ENCODING 61
SWIDTH 360 0
DWIDTH 8 0
BBX 8 5 0 5
BITMAP
3F
7F
00
FE
C0
ENDCHAR
STARTCHAR 003E
ENCODING 62
SWIDTH 270 0
DWIDTH 6 0
BBX 6 8 -1 3
BITMAP
30
18
0C
0C
0C
18
30
E0
ENDCHAR
STARTCHAR 003F
ENCODING 63
SWIDTH 405 0
DWIDTH 9 0
BBX 10 17 0 -1
BITMAP
1F80
30C0
60C0
60C0
10C0
0180
0180
0700
3C00
3000
6000
6000
6000
0000
4000
E000
C000
ENDCHAR
STARTCHAR 0040
ENCODING 64
SWIDTH 630 0
DWIDTH 14 0
BBX 15 14 -1 0
BITMAP
03F0
0E08
1804
31D4
2376
66E6
4C26
4866
C846
48C4
4F8C
6498
30F0
1E40
ENDCHAR
STARTCHAR 0041
ENCODING 65
SWIDTH 540 0
DWIDTH 12 0
BBX 13 21 -2 -5
BITMAP
0078
00D8
0198
0118
0318
0610
0610
0430
0C30
0C30
0C30
1FF8
FFF0
1860
3060
3060
7060
7060
6060
C060
0070
ENDCHAR
STARTCHAR 0042
ENCODING 66
SWIDTH 585 0
DWIDTH 13 0
BBX 13 20 0 -4
BITMAP
07E0
3C30
3C38
2C18
0C38
1830
1830
1860
10C0
3F80
3EC0
3060
2060
6070
6060
6060
E0E0
C1C0
C780
FE00
ENDCHAR
STARTCHAR 0043
ENCODING 67
SWIDTH 540 0
DWIDTH 12 0
BBX 12 20 0 -4
BITMAP
03E0
0630
0C30
1830
1830
3070
3060
7040
6000
6000
E000
E000
C000
C000
C000
C040
E080
6180
3F00
1E00
ENDCHAR
STARTCHAR 0044
ENCODING 68
SWIDTH 630 0
DWIDTH 14 0
BBX 13 20 0 -4
BITMAP
0F80
3DE0
3030
0C30
1C18
1C18
1818
1818
1818
1818
3038
3030
3030
3070
6060
60C0
61C0
E380
EE00
7C00
ENDCHAR
STARTCHAR 0045
ENCODING 69
SWIDTH 540 0
DWIDTH 12 0
BBX 13 20 -1 -4
BITMAP
01F0
0718
0C18
1C18
1830
1870
1820
1800
1C00
0F80
1F80
3000
6000
6000
E020
E020
E040
70C0
7F80
1E00
ENDCHAR
STARTCHAR 0046
ENCODING 70
SWIDTH 585 0
DWIDTH 13 0
BBX 12 20 1 -4
BITMAP
1FE0
7070
C030
C820
F060
2040
00C0
0080
0780
7FE0
4300
0300
0600
0600
0E00
0C00
0C00
1C00
1C00
1C00
ENDCHAR
STARTCHAR 0047
ENCODING 71
SWIDTH 585 0
DWIDTH 13 0
BBX 13 20 0 -4
BITMAP
01E0
0330
0630
0C30
1830
1830
3070
3020
7000
6000
6018
63F0
E060
E060
E060
E0C0
60C0
6180
3300
1E00
ENDCHAR
STARTCHAR 0048
ENCODING 72
SWIDTH 630 0
DWIDTH 14 0
BBX 15 20 0 -4
BITMAP
060E
0C0C
0C0C
0C18
1818
1818
1810
1830
3030
3FFC
7E78
3360
6160
61E0
60C0
60C0
60C0
C0C0
C0C0
C180
ENDCHAR
STARTCHAR 0049
ENCODING 73
SWIDTH 540 0
DWIDTH 12 0
BBX 14 20 -2 -4
BITMAP
0078
00D8
01D8
0198
0198
0310
0330
0330
0130
0130
0160
00FC
1FE0
38C0
60C0
E0C0
E180
6100
3300
1E00
ENDCHAR
STARTCHAR 004A
ENCODING 74
SWIDTH 495 0
DWIDTH 11 0
BBX 15 20 -2 -4
BITMAP
01FE
01DE
0030
0030
0030
0030
0060
0060
0060
00E0
18C0
3CC0
30C0
61C0
6180
C180
C300
C300
4600
7C00
ENDCHAR
STARTCHAR 004B
ENCODING 75
SWIDTH 495 0
DWIDTH 11 0
BBX 13 22 -1 -6
BITMAP
0618
0E18
0C38
0C30
0C30
1860
18E0
18C0
1180
3600
3C00
7F80
2180
6180
6180
6180
6380
E300
E300
C300
0390
01E0
ENDCHAR
STARTCHAR 004C
ENCODING 76
SWIDTH 495 0
DWIDTH 11 0
BBX 14 20 -2 -4
BITMAP
0038
007C
006C
00C8
00D8
00F0
01E0
1FC0
0F80
0180
0300
0300
0300
0200
0600
0400
7C00
FE10
F7F0
41E0
ENDCHAR
STARTCHAR 004D
ENCODING 77
SWIDTH 720 0
DWIDTH 16 0
BBX 18 20 -2 -4
BITMAP
00C0C0
01C1C0
01C3C0
014380
034680
03C780
02CD80
06CD80
06C900
06DB00
2CD300
6CF300
4CE300
CCE200
88E600
98E600
984600
980600
F00600
700780
ENDCHAR
STARTCHAR 004E
ENCODING 78
SWIDTH 540 0
DWIDTH 12 0
BBX 15 20 -1 -4
BITMAP
0C0E
0C1A
0C32
1C36
1E34
1628
16F0
3660
3660
3660
2660
6640
66C0
66C0
62C0
E2C0
E380
E380
E380
E100
ENDCHAR
STARTCHAR 004F
ENCODING 79
SWIDTH 540 0
DWIDTH 12 0
BBX 11 20 0 -4
BITMAP
07C0
0F60
0E60
1860
3060
3060
3060
6060
6060
6060
6060
C060
C060
C0C0
C0C0
C180
C180
6300
6600
3C00
ENDCHAR
STARTCHAR 0050
ENCODING 80
SWIDTH 540 0
DWIDTH 12 0
BBX 14 20 -1 -4
BITMAP
07F0
1E38
3E18
2418
041C
0C18
0C18
0838
1830
1860
19C0
1F00
3000
3000
3000
3000
7000
6000
E000
C000
ENDCHAR
STARTCHAR 0051
ENCODING 81
SWIDTH 585 0
DWIDTH 13 0
BBX 11 20 1 -4
BITMAP
0780
1CC0
3860
3060
6060
6060
E060
C060
C060
C060
C0C0
C0C0
C0C0
E180
7180
0300
7E00
CE00
DB00
F0E0
ENDCHAR
STARTCHAR 0052
ENCODING 82
SWIDTH 540 0
DWIDTH 12 0
BBX 14 21 -1 -5
BITMAP
07F0
1E18
3E18
140C
040C
0C1C
0C18
0C18
0830
1860
3FC0
3F80
1900
3180
3180
3180
3180
7180
60C0
E0C8
00F0
ENDCHAR
STARTCHAR 0053
ENCODING 83
SWIDTH 450 0
DWIDTH 10 0
BBX 12 20 -1 -3
BITMAP
07E0
0E30
1830
1830
1830
1860
1800
1C00
0E00
0700
0300
0380
0180
0180
6180
C180
C100
E300
6600
7C00
ENDCHAR
STARTCHAR 0054
ENCODING 84
SWIDTH 405 0
DWIDTH 9 0
BBX 11 20 1 -4
BITMAP
7FE0
FFE0
8C00
0C00
0C00
0800
1800
1800
1800
1000
3000
3000
3000
3000
6000
6000
6000
6000
E000
E000
ENDCHAR
STARTCHAR 0055
ENCODING 85
SWIDTH 585 0
DWIDTH 13 0
BBX 14 20 0 -4
BITMAP
0C1C
1C18
1C38
1830
3830
3030
3060
3060
7060
6060
60C0
60C0
60C0
C0C0
C1C0
C1C0
C380
C280
7CC0
78C0
ENDCHAR
STARTCHAR 0056
ENCODING 86
SWIDTH 495 0
DWIDTH 11 0
BBX 12 20 1 -4
BITMAP
3060
7070
60E0
60C0
60C0
C180
C180
C180
C300
C300
C300
C600
C600
C600
CC00
CC00
4800
5800
7000
3000
ENDCHAR
STARTCHAR 0057
ENCODING 87
SWIDTH 810 0
DWIDTH 18 0
BBX 17 20 1 -4
BITMAP
180380
384380
30C380
30C380
61C300
61C300
618300
C18300
C18300
C18200
C30600
830600
830600
870C00
870C00
850800
8D1800
D99000
F1F000
60E000
ENDCHAR
STARTCHAR 0058
ENCODING 88
SWIDTH 585 0
DWIDTH 13 0
BBX 16 20 -1 -4
BITMAP
1C07
360E
261C
2218
3330
3F60
0B60
03C0
0380
0180
0300
0700
0700
0D00
1D80
1980
3180
7084
E0D8
4070
ENDCHAR
STARTCHAR 0059
ENCODING 89
SWIDTH 540 0
DWIDTH 12 0
BBX 13 20 0 -4
BITMAP
1C38
1830
1830
3070
3060
3060
3060
6040
60C0
60C0
61C0
6380
6680
7C80
0180
0100
0300
6600
FE00
7800
ENDCHAR
STARTCHAR 005A
ENCODING 90
SWIDTH 450 0
DWIDTH 10 0
BBX 13 20 -2 -4
BITMAP
0FF8
0FF8
0818
0030
0030
0060
00E0
00C0
0180
0300
0600
0E00
1C00
1800
3000
2000
6000
CFC0
FFC0
6180
ENDCHAR
STARTCHAR 005B
ENCODING 91
SWIDTH 180 0
DWIDTH 4 0
BBX 8 20 -1 -2
BITMAP
07
0C
0C
08
18
18
10
10
30
30
20
20
60
60
40
40
40
C0
C0
E0
ENDCHAR
STARTCHAR 005C
ENCODING 92
SWIDTH 270 0
DWIDTH 6 0
BBX 4 16 1 0
BITMAP
C0
C0
C0
C0
C0
40
40
40
60
60
60
60
20
30
30
30
ENDCHAR
STARTCHAR 005D
ENCODING 93
SWIDTH 225 0
DWIDTH 5 0
BBX 7 20 -2 -2
BITMAP
0E
02
02
06
06
06
04
04
0C
0C
08
08
18
18
10
10
30
30
20
E0
ENDCHAR
STARTCHAR 005E
ENCODING 94
SWIDTH 270 0
DWIDTH 6 0
BBX 7 8 0 8
BITMAP
0C
1C
14
34
66
46
C6
86
ENDCHAR
STARTCHAR 005F
ENCODING 95
SWIDTH 450 0
DWIDTH 10 0
BBX 11 2 -2 0
BITMAP
7F80
FFE0
ENDCHAR
STARTCHAR 0060
ENCODING 96
SWIDTH 540 0
DWIDTH 12 0
BBX 4 3 6 12
BITMAP
C0
E0
30
ENDCHAR
STARTCHAR 0061
ENCODING 97
SWIDTH 450 0
DWIDTH 10 0
BBX 11 9 0 0
BITMAP
1C00
3400
6600
4600
C620
C440
CC40
DC80
E700
ENDCHAR
STARTCHAR 0062
ENCODING 98
SWIDTH 405 0
DWIDTH 9 0
BBX 11 16 0 0
BITMAP
0800
1800
1800
3800
3800
3000
7000
7000
6600
6660
C780
C600
C600
C400
4800
7000
ENDCHAR
STARTCHAR 0063
ENCODING 99
SWIDTH 360 0
DWIDTH 8 0
BBX 10 10 0 -1
BITMAP
1C00
7400
6C00
C800
C040
8080
8100
C600
7C00
3000
ENDCHAR
STARTCHAR 0064
ENCODING 100
SWIDTH 495 0
DWIDTH 11 0
BBX 12 16 0 -1
BITMAP
00C0
00C0
00C0
01C0
01C0
01C0
1980
3780
6700
C700
C210
8620
8E60
DEC0
F780
0200
ENDCHAR
STARTCHAR 0065
ENCODING 101
SWIDTH 360 0
DWIDTH 8 0
BBX 10 10 0 -1
BITMAP
1C00
3400
6400
4800
D040
E080
C100
C200
7C00
2000
ENDCHAR
STARTCHAR 0066
ENCODING 102
SWIDTH 315 0
DWIDTH 7 0
BBX 11 25 -2 -10
BITMAP
0600
0600
0600
0600
0600
0400
0C00
0C00
0860
1F80
3800
3000
3000
3800
2C00
2600
6200
6200
6200
4600
C600
CC00
CC00
F800
F000
ENDCHAR
STARTCHAR 0067
ENCODING 103
SWIDTH 450 0
DWIDTH 10 0
BBX 12 20 0 -11
BITMAP
1800
3500
6700
4700
C210
C220
C640
CF80
7700
0C00
1C00
3C00
6C00
C800
9800
9800
9800
F000
F000
6000
ENDCHAR
STARTCHAR 0068
ENCODING 104
SWIDTH 450 0
DWIDTH 10 0
BBX 12 15 0 0
BITMAP
1800
1800
1800
3000
3000
3000
2200
6F00
7300
6300
4210
4620
C640
C480
C700
ENDCHAR
STARTCHAR 0069
ENCODING 105
SWIDTH 270 0
DWIDTH 6 0
BBX 8 14 0 0
BITMAP
18
18
00
00
00
10
60
60
60
41
42
C4
D8
70
ENDCHAR
STARTCHAR 006A
ENCODING 106
SWIDTH 270 0
DWIDTH 6 0
BBX 13 24 -5 -10
BITMAP
00C0
00C0
0000
0000
0000
0000
0180
0300
0300
0318
0230
0660
06C0
0700
0600
0C00
1C00
2C00
6C00
4800
D800
D800
7000
2000
ENDCHAR
STARTCHAR 006B
ENCODING 107
SWIDTH 450 0
DWIDTH 10 0
BBX 11 16 0 -1
BITMAP
1800
1800
3000
3000
3000
3000
2600
6F00
7200
6600
5C20
DC60
C440
8C80
8F00
0400
ENDCHAR
STARTCHAR 006C
ENCODING 108
SWIDTH 225 0
DWIDTH 5 0
BBX 5 15 0 0
BITMAP
18
18
18
30
30
30
30
60
60
60
40
C0
C0
C0
80
ENDCHAR
STARTCHAR 006D
ENCODING 109
SWIDTH 720 0
DWIDTH 16 0
BBX 18 9 0 -1
BITMAP
677800
6BD800
739840
631880
633080
C23100
C63200
C63C00
001000
ENDCHAR
STARTCHAR 006E
ENCODING 110
SWIDTH 450 0
DWIDTH 10 0
BBX 12 10 0 -1
BITMAP
0200
6F00
7300
6300
6610
4620
C640
C480
C700
0200
ENDCHAR
STARTCHAR 006F
ENCODING 111
SWIDTH 405 0
DWIDTH 9 0
BBX 11 9 0 0
BITMAP
1800
7C00
6420
E6C0
E700
BE00
8C00
CC00
F800
ENDCHAR
STARTCHAR 0070
ENCODING 112
SWIDTH 450 0
DWIDTH 10 0
BBX 14 18 -2 -9
BITMAP
0080
1BC0
1CC0
18C0
18CC
1088
3190
3F20
2FC0
2C00
6000
6000
6000
4000
C000
C000
C000
C000
ENDCHAR
STARTCHAR 0071
ENCODING 113
SWIDTH 450 0
DWIDTH 10 0
BBX 11 19 0 -10
BITMAP
0880
3500
6700
4700
C300
C200
C620
C640
FE80
2500
0700
0E00
0C00
0800
1800
1800
1800
1800
0800
ENDCHAR
STARTCHAR 0072
ENCODING 114
SWIDTH 405 0
DWIDTH 9 0
BBX 13 11 -2 -1
BITMAP
0C00
1C00
1C00
1F00
1180
3318
2310
6620
4640
8780
0300
ENDCHAR
STARTCHAR 0073
ENCODING 115
SWIDTH 360 0
DWIDTH 8 0
BBX 6 11 0 -1
BITMAP
18
38
30
30
58
48
8C
4C
6C
78
30
ENDCHAR
STARTCHAR 0074
ENCODING 116
SWIDTH 315 0
DWIDTH 7 0
BBX 11 16 -2 -1
BITMAP
0600
0600
0600
FFE0
0E00
0C00
0C00
0C00
1800
1820
1040
1080
1180
1300
1E00
0400
ENDCHAR
STARTCHAR 0075
ENCODING 117
SWIDTH 450 0
DWIDTH 10 0
BBX 12 8 0 0
BITMAP
6300
6300
4710
C610
C620
C640
CEC0
7B80
ENDCHAR
STARTCHAR 0076
ENCODING 118
SWIDTH 405 0
DWIDTH 9 0
BBX 12 10 0 -1
BITMAP
0100
6300
C710
C620
C7C0
C400
C800
5800
7000
2000
ENDCHAR
STARTCHAR 0077
ENCODING 119
SWIDTH 630 0
DWIDTH 14 0
BBX 16 10 0 -1
BITMAP
0310
6330
6630
4631
C63E
C460
C460
CEC0
7380
2000
ENDCHAR
STARTCHAR 0078
ENCODING 120
SWIDTH 405 0
DWIDTH 9 0
BBX 11 10 -1 -1
BITMAP
3180
3380
1700
1E00
1C00
1820
3840
6C80
C700
8000
ENDCHAR
STARTCHAR 0079
ENCODING 121
SWIDTH 405 0
DWIDTH 9 0
BBX 8 17 0 -9
BITMAP
63
63
C2
C6
C6
8E
9C
F4
6C
0C
08
08
18
18
18
30
30
ENDCHAR
STARTCHAR 007A
ENCODING 122
SWIDTH 450 0
DWIDTH 10 0
BBX 12 19 -1 -10
BITMAP
07C0
1F80
1180
0100
0300
0610
0D20
0FC0
0980
0700
0D00
3300
2300
6600
4600
CC00
CC00
7800
2000
ENDCHAR
STARTCHAR 007B
ENCODING 123
SWIDTH 225 0
DWIDTH 5 0
BBX 7 21 0 -3
BITMAP
06
1E
18
10
10
10
10
10
30
60
60
20
20
60
40
C0
80
80
E0
E0
20
ENDCHAR
STARTCHAR 007C
ENCODING 124
SWIDTH 270 0
DWIDTH 6 0
BBX 6 16 0 0
BITMAP
0C
18
18
18
10
10
30
30
20
20
60
60
40
40
C0
C0
ENDCHAR
STARTCHAR 007D
ENCODING 125
SWIDTH 225 0
DWIDTH 5 0
BBX 8 21 -2 -3
BITMAP
04
0E
07
02
02
06
04
0C
08
0C
06
08
18
10
10
10
10
30
70
E0
80
ENDCHAR
STARTCHAR 007E
ENCODING 126
SWIDTH 315 0
DWIDTH 7 0
BBX 9 2 -1 7
BITMAP
7980
FF00
ENDCHAR
STARTCHAR 00A0
ENCODING 160
SWIDTH 270 0
DWIDTH 6 0
BBX 0 0 0 0
BITMAP
ENDCHAR
STARTCHAR 00A1
ENCODING 161
SWIDTH 225 0
DWIDTH 5 0
BBX 6 17 0 -1
BITMAP
1C
18
00
08
10
10
30
30
30
60
60
60
60
C0
C0
C0
80
ENDCHAR
STARTCHAR 00A2
ENCODING 162
SWIDTH 315 0
DWIDTH 7 0
BBX 7 16 0 0
BITMAP
04
04
0E
12
26
66
46
C0
C0
80
80
84
C8
70
20
60
ENDCHAR
STARTCHAR 00A3
ENCODING 163
SWIDTH 315 0
DWIDTH 7 0
BBX 9 14 -1 1
BITMAP
0700
0880
1980
1100
1300
1000
3000
7C00
2000
2000
6000
4000
BE00
E200
ENDCHAR
STARTCHAR 00A4
ENCODING 164
SWIDTH 360 0
DWIDTH 8 0
BBX 8 8 0 4
BITMAP
41
6B
34
24
24
6C
F4
82
ENDCHAR
STARTCHAR 00A5
ENCODING 165
SWIDTH 315 0
DWIDTH 7 0
BBX 9 14 0 1
BITMAP
2080
6100
2300
2200
2600
3C00
1800
1000
7C00
3000
F800
2000
6000
4000
ENDCHAR
STARTCHAR 00A6
ENCODING 166
SWIDTH 270 0
DWIDTH 6 0
BBX 6 16 0 0
BITMAP
0C
18
18
18
10
30
30
00
00
20
60
60
40
40
C0
C0
ENDCHAR
STARTCHAR 00A7
ENCODING 167
SWIDTH 315 0
DWIDTH 7 0
BBX 9 17 -1 -1
BITMAP
0F00
1980
1180
1300
1800
0C00
3E00
6200
6200
6600
3C00
1800
0C00
6400
CC00
4800
3000
ENDCHAR
STARTCHAR 00A8
ENCODING 168
SWIDTH 540 0
DWIDTH 12 0
BBX 5 1 5 13
BITMAP
D8
ENDCHAR
STARTCHAR 00A9
ENCODING 169
SWIDTH 450 0
DWIDTH 10 0
BBX 11 11 0 5
BITMAP
0F80
10C0
2740
6D60
4920
D820
D160
5240
4CC0
6180
1E00
ENDCHAR
STARTCHAR 00AA
ENCODING 170
SWIDTH 360 0
DWIDTH 8 0
BBX 10 12 -1 -1
BITMAP
0400
1E00
3600
2200
6600
4640
4C40
7D80
6200
0000
FE00
8000
ENDCHAR
STARTCHAR 00AB
ENCODING 171
SWIDTH 360 0
DWIDTH 8 0
BBX 8 9 -1 0
BITMAP
09
1B
36
64
D8
C8
6C
24
36
ENDCHAR
STARTCHAR 00AC
ENCODING 172
SWIDTH 495 0
DWIDTH 11 0
BBX 11 5 0 4
BITMAP
7FE0
FFE0
0060
0040
00C0
ENDCHAR
STARTCHAR 00AD
ENCODING 173
SWIDTH 360 0
DWIDTH 8 0
BBX 7 2 0 6
BITMAP
7E
FE
ENDCHAR
STARTCHAR 00AE
ENCODING 174
SWIDTH 450 0
DWIDTH 10 0
BBX 11 11 0 5
BITMAP
0F80
10C0
2F40
6D60
4920
CE20
CC60
4A40
53C0
6180
1E00
ENDCHAR
STARTCHAR 00AF
ENCODING 175
SWIDTH 540 0
DWIDTH 12 0
BBX 5 1 5 13
BITMAP
F8
ENDCHAR
STARTCHAR 00B0
ENCODING 176
SWIDTH 135 0
DWIDTH 3 0
BBX 3 3 1 12
BITMAP
60
A0
60
ENDCHAR
STARTCHAR 00B2
ENCODING 178
SWIDTH 270 0
DWIDTH 6 0
BBX 7 10 0 6
BITMAP
1C
26
36
04
0C
18
30
60
F8
7C
ENDCHAR
STARTCHAR 00B3
ENCODING 179
SWIDTH 270 0
DWIDTH 6 0
BBX 7 10 0 6
BITMAP
3C
26
36
0C
18
3C
04
4C
C8
70
ENDCHAR
STARTCHAR 00B4
ENCODING 180
SWIDTH 540 0
DWIDTH 12 0
BBX 3 3 6 12
BITMAP
20
60
80
ENDCHAR
STARTCHAR 00B5
ENCODING 181
SWIDTH 450 0
DWIDTH 10 0
BBX 13 12 -3 -4
BITMAP
0CC0
18C0
19C0
1180
1188
3190
3390
3EE0
6000
6000
6000
C000
ENDCHAR
STARTCHAR 00B6
ENCODING 182
SWIDTH 405 0
DWIDTH 9 0
BBX 10 16 1 0
BITMAP
0680
3FC0
7D00
FD00
FD00
FB00
FA00
7A00
1A00
1200
1600
3400
3400
2400
2C00
6800
ENDCHAR
STARTCHAR 00B7
ENCODING 183
SWIDTH 180 0
DWIDTH 4 0
BBX 3 2 0 7
BITMAP
E0
40
ENDCHAR
STARTCHAR 00B8
ENCODING 184
SWIDTH 540 0
DWIDTH 12 0
BBX 4 5 6 -3
BITMAP
C0
80
70
20
C0
ENDCHAR
STARTCHAR 00B9
ENCODING 185
SWIDTH 135 0
DWIDTH 3 0
BBX 3 10 1 6
BITMAP
60
60
60
40
40
40
C0
80
80
80
ENDCHAR
STARTCHAR 00BA
ENCODING 186
SWIDTH 315 0
DWIDTH 7 0
BBX 9 11 -1 -1
BITMAP
3C00
2680
6680
7700
5E00
4400
6C00
3000
0000
FC00
8000
ENDCHAR
STARTCHAR 00BB
ENCODING 187
SWIDTH 360 0
DWIDTH 8 0
BBX 9 9 -2 0
BITMAP
2400
3600
1200
1B00
0D80
1B00
1200
2400
CC00
ENDCHAR
STARTCHAR 00BC
ENCODING 188
SWIDTH 585 0
DWIDTH 13 0
BBX 13 16 -1 0
BITMAP
1818
1830
1820
1060
10C0
1080
3118
3338
2270
34D0
0C90
19F8
1130
3020
6020
E060
ENDCHAR
STARTCHAR 00BD
ENCODING 189
SWIDTH 585 0
DWIDTH 13 0
BBX 14 17 -1 -1
BITMAP
0818
1830
1820
1860
10C0
1080
11B8
336C
224C
3468
0C18
0810
1820
30C0
2080
61F8
8008
ENDCHAR
STARTCHAR 00BE
ENCODING 190
SWIDTH 675 0
DWIDTH 15 0
BBX 14 16 0 0
BITMAP
3C0C
2618
3610
0C30
1860
3C40
048C
4D9C
C938
7268
0648
0CFC
0898
1810
3010
7030
ENDCHAR
STARTCHAR 00BF
ENCODING 191
SWIDTH 405 0
DWIDTH 9 0
BBX 10 17 -1 -1
BITMAP
00C0
01C0
0000
0080
0180
0180
0100
0700
1C00
3000
6000
C000
C380
C180
C380
7E00
1800
ENDCHAR
STARTCHAR 00C0
ENCODING 192
SWIDTH 540 0
DWIDTH 12 0
BBX 13 26 -2 -5
BITMAP
0060
0038
0008
0000
0000
0078
00D8
0198
0118
0318
0610
0610
0430
0C30
0C30
0C30
1FF8
FFF0
1860
3060
3060
7060
7060
6060
C060
0070
ENDCHAR
STARTCHAR 00C1
ENCODING 193
SWIDTH 540 0
DWIDTH 12 0
BBX 13 25 -2 -5
BITMAP
0008
0038
0060
0000
0078
00D8
0198
0118
0318
0610
0610
0430
0C30
0C30
0C30
1FF8
FFF0
1860
3060
3060
7060
7060
6060
C060
0070
ENDCHAR
STARTCHAR 00C2
ENCODING 194
SWIDTH 540 0
DWIDTH 12 0
BBX 14 25 -2 -5
BITMAP
0018
006C
0080
0000
0078
00D8
0198
0118
0318
0610
0610
0430
0C30
0C30
0C30
1FF8
FFF0
1860
3060
3060
7060
7060
6060
C060
0070
ENDCHAR
STARTCHAR 00C3
ENCODING 195
SWIDTH 540 0
DWIDTH 12 0
BBX 15 25 -2 -5
BITMAP
0002
00FE
0000
0000
0078
00D8
0198
0118
0318
0610
0610
0430
0C30
0C30
0C30
1FF8
FFF0
1860
3060
3060
7060
7060
6060
C060
0070
ENDCHAR
STARTCHAR 00C4
ENCODING 196
SWIDTH 540 0
DWIDTH 12 0
BBX 15 24 -2 -5
BITMAP
006E
0000
0000
0078
00D8
0198
0118
0318
0610
0610
0430
0C30
0C30
0C30
1FF8
FFF0
1860
3060
3060
7060
7060
6060
C060
0070
ENDCHAR
STARTCHAR 00C5
ENCODING 197
SWIDTH 540 0
DWIDTH 12 0
BBX 13 24 -2 -5
BITMAP
0010
0028
0038
0078
00D8
0198
0118
0318
0610
0610
0430
0C30
0C30
0C30
1FF8
FFF0
1860
3060
3060
7060
7060
6060
C060
0070
ENDCHAR
STARTCHAR 00C6
ENCODING 198
SWIDTH 855 0
DWIDTH 19 0
BBX 21 21 -2 -5
BITMAP
0079F0
00DB08
019E08
011C18
031C18
061C78
061C10
043C00
0C3C00
0C3780
0C3F80
1FF800
FFF000
186000
306010
306020
707020
707040
607F80
C07F00
006000
ENDCHAR
STARTCHAR 00C7
ENCODING 199
SWIDTH 540 0
DWIDTH 12 0
BBX 12 25 0 -9
BITMAP
03E0
0630
0C30
1830
1830
3070
3060
7040
6000
6000
E000
E000
C000
C000
C000
C040
E080
6180
3F00
1E00
1800
1C00
0400
0C00
1000
ENDCHAR
STARTCHAR 00C8
ENCODING 200
SWIDTH 540 0
DWIDTH 12 0
BBX 13 24 -1 -4
BITMAP
00C0
00E0
0030
0000
01F0
0718
0C18
1C18
1830
1870
1820
1800
1C00
0F80
1F80
3000
6000
6000
E020
E020
E040
70C0
7F80
1E00
ENDCHAR
STARTCHAR 00C9
ENCODING 201
SWIDTH 540 0
DWIDTH 12 0
BBX 13 24 -1 -4
BITMAP
0010
0070
00C0
0000
01F0
0718
0C18
1C18
1830
1870
1820
1800
1C00
0F80
1F80
3000
6000
6000
E020
E020
E040
70C0
7F80
1E00
ENDCHAR
STARTCHAR 00CA
ENCODING 202
SWIDTH 540 0
DWIDTH 12 0
BBX 13 24 -1 -4
BITMAP
0070
00D0
0108
0000
01F0
0718
0C18
1C18
1830
1870
1820
1800
1C00
0F80
1F80
3000
6000
6000
E020
E020
E040
70C0
7F80
1E00
ENDCHAR
STARTCHAR 00CB
ENCODING 203
SWIDTH 540 0
DWIDTH 12 0
BBX 13 23 -1 -4
BITMAP
01D8
0000
0000
01F0
0718
0C18
1C18
1830
1870
1820
1800
1C00
0F80
1F80
3000
6000
6000
E020
E020
E040
70C0
7F80
1E00
ENDCHAR
STARTCHAR 00CC
ENCODING 204
SWIDTH 540 0
DWIDTH 12 0
BBX 14 24 -2 -4
BITMAP
0060
0030
0008
0000
0078
00D8
01D8
0198
0198
0310
0330
0330
0130
0130
0160
00FC
1FE0
38C0
60C0
E0C0
E180
6100
3300
1E00
ENDCHAR
STARTCHAR 00CD
ENCODING 205
SWIDTH 540 0
DWIDTH 12 0
BBX 14 24 -2 -4
BITMAP
000C
0018
0030
0000
0078
00D8
01D8
0198
0198
0310
0330
0330
0130
0130
0160
00FC
1FE0
38C0
60C0
E0C0
E180
6100
3300
1E00
ENDCHAR
STARTCHAR 00CE
ENCODING 206
SWIDTH 540 0
DWIDTH 12 0
BBX 15 24 -2 -4
BITMAP
001C
0034
0042
0000
0078
00D8
01D8
0198
0198
0310
0330
0330
0130
0130
0160
00FC
1FE0
38C0
60C0
E0C0
E180
6100
3300
1E00
ENDCHAR
STARTCHAR 00CF
ENCODING 207
SWIDTH 540 0
DWIDTH 12 0
BBX 15 23 -2 -4
BITMAP
006E
0000
0000
0078
00D8
01D8
0198
0198
0310
0330
0330
0130
0130
0160
00FC
1FE0
38C0
60C0
E0C0
E180
6100
3300
1E00
ENDCHAR
STARTCHAR 00D0
ENCODING 208
SWIDTH 630 0
DWIDTH 14 0
BBX 14 20 -1 -4
BITMAP
07C0
1EF0
1818
0618
0E0C
0E0C
0C0C
0C0C
0C0C
7F0C
F81C
1818
1818
1838
3030
3060
30E0
71C0
7700
3E00
ENDCHAR
STARTCHAR 00D1
ENCODING 209
SWIDTH 540 0
DWIDTH 12 0
BBX 15 23 -1 -4
BITMAP
0008
03F8
0000
0C0E
0C1A
0C32
1C36
1E34
1628
16F0
3660
3660
3660
2660
6640
66C0
66C0
62C0
E2C0
E380
E380
E380
E100
ENDCHAR
STARTCHAR 00D2
ENCODING 210
SWIDTH 540 0
DWIDTH 12 0
BBX 11 24 0 -4
BITMAP
0180
01C0
0060
0000
07C0
0F60
0E60
1860
3060
3060
3060
6060
6060
6060
6060
C060
C060
C0C0
C0C0
C180
C180
6300
6600
3C00
ENDCHAR
STARTCHAR 00D3
ENCODING 211
SWIDTH 540 0
DWIDTH 12 0
BBX 11 24 0 -4
BITMAP
0060
00C0
0180
0000
07C0
0F60
0E60
1860
3060
3060
3060
6060
6060
6060
6060
C060
C060
C0C0
C0C0
C180
C180
6300
6600
3C00
ENDCHAR
STARTCHAR 00D4
ENCODING 212
SWIDTH 540 0
DWIDTH 12 0
BBX 12 24 0 -4
BITMAP
00C0
0360
0410
0000
07C0
0F60
0E60
1860
3060
3060
3060
6060
6060
6060
6060
C060
C060
C0C0
C0C0
C180
C180
6300
6600
3C00
ENDCHAR
STARTCHAR 00D5
ENCODING 213
SWIDTH 540 0
DWIDTH 12 0
BBX 12 24 0 -4
BITMAP
0010
07F0
0000
0000
07C0
0F60
0E60
1860
3060
3060
3060
6060
6060
6060
6060
C060
C060
C0C0
C0C0
C180
C180
6300
6600
3C00
ENDCHAR
STARTCHAR 00D6
ENCODING 214
SWIDTH 540 0
DWIDTH 12 0
BBX 12 23 0 -4
BITMAP
0370
0000
0000
07C0
0F60
0E60
1860
3060
3060
3060
6060
6060
6060
6060
C060
C060
C0C0
C0C0
C180
C180
6300
6600
3C00
ENDCHAR
STARTCHAR 00D7
ENCODING 215
SWIDTH 270 0
DWIDTH 6 0
BBX 8 8 -1 3
BITMAP
33
16
1C
18
38
28
CC
04
ENDCHAR
STARTCHAR 00D8
ENCODING 216
SWIDTH 585 0
DWIDTH 13 0
BBX 14 22 -1 -5
BITMAP
0004
01FC
03B8
0730
0C30
0C78
1878
18D8
3898
3198
3330
3330
3630
3630
7C30
7C60
3860
38C0
30C0
7380
7E00
C000
ENDCHAR
STARTCHAR 00D9
ENCODING 217
SWIDTH 585 0
DWIDTH 13 0
BBX 14 24 0 -4
BITMAP
0180
01C0
0060
0000
0C1C
1C18
1C38
1830
3830
3030
3060
3060
7060
6060
60C0
60C0
60C0
C0C0
C1C0
C1C0
C380
C280
7CC0
78C0
ENDCHAR
STARTCHAR 00DA
ENCODING 218
SWIDTH 585 0
DWIDTH 13 0
BBX 14 24 0 -4
BITMAP
0030
0060
00C0
0000
0C1C
1C18
1C38
1830
3830
3030
3060
3060
7060
6060
60C0
60C0
60C0
C0C0
C1C0
C1C0
C380
C280
7CC0
78C0
ENDCHAR
STARTCHAR 00DB
ENCODING 219
SWIDTH 585 0
DWIDTH 13 0
BBX 14 24 0 -4
BITMAP
00E0
01A0
0210
0000
0C1C
1C18
1C38
1830
3830
3030
3060
3060
7060
6060
60C0
60C0
60C0
C0C0
C1C0
C1C0
C380
C280
7CC0
78C0
ENDCHAR
STARTCHAR 00DC
ENCODING 220
SWIDTH 585 0
DWIDTH 13 0
BBX 14 23 0 -4
BITMAP
03B0
0000
0000
0C1C
1C18
1C38
1830
3830
3030
3060
3060
7060
6060
60C0
60C0
60C0
C0C0
C1C0
C1C0
C380
C280
7CC0
78C0
ENDCHAR
STARTCHAR 00DD
ENCODING 221
SWIDTH 540 0
DWIDTH 12 0
BBX 13 24 0 -4
BITMAP
0060
00E0
0180
0000
1C38
1830
1830
3070
3060
3060
3060
6040
60C0
60C0
61C0
6380
6680
7C80
0180
0100
0300
6600
FE00
7800
ENDCHAR
STARTCHAR 00DE
ENCODING 222
SWIDTH 585 0
DWIDTH 13 0
BBX 13 20 -1 -4
BITMAP
0600
0C00
0C00
0C00
0FE0
1830
3818
3818
1818
3018
3030
3030
3060
20C0
6380
7E00
6000
6000
E000
C000
ENDCHAR
STARTCHAR 00DF
ENCODING 223
SWIDTH 495 0
DWIDTH 11 0
BBX 13 25 -3 -10
BITMAP
0040
01F0
0330
0230
0620
0660
0440
0CC0
0C40
0860
0830
7830
1898
1D90
36F0
3240
2300
2300
6300
6300
4600
4600
CC00
F800
7000
ENDCHAR
STARTCHAR 00E0
ENCODING 224
SWIDTH 450 0
DWIDTH 10 0
BBX 11 13 0 0
BITMAP
1800
1C00
0600
0000
1C00
3400
6600
4600
C620
C440
CC40
DC80
E700
ENDCHAR
STARTCHAR 00E1
ENCODING 225
SWIDTH 450 0
DWIDTH 10 0
BBX 11 13 0 0
BITMAP
0200
0E00
1800
0000
1C00
3400
6600
4600
C620
C440
CC40
DC80
E700
ENDCHAR
STARTCHAR 00E2
ENCODING 226
SWIDTH 450 0
DWIDTH 10 0
BBX 11 13 0 0
BITMAP
0E00
1A00
2100
0000
1C00
3400
6600
4600
C620
C440
CC40
DC80
E700
ENDCHAR
STARTCHAR 00E3
ENCODING 227
SWIDTH 450 0
DWIDTH 10 0
BBX 11 13 0 0
BITMAP
0080
3F00
0000
0000
1C00
3400
6600
4600
C620
C440
CC40
DC80
E700
ENDCHAR
STARTCHAR 00E4
ENCODING 228
SWIDTH 450 0
DWIDTH 10 0
BBX 11 12 0 0
BITMAP
1B80
0000
0000
1C00
3400
6600
4600
C620
C440
CC40
DC80
E700
ENDCHAR
STARTCHAR 00E5
ENCODING 229
SWIDTH 450 0
DWIDTH 10 0
BBX 11 13 0 0
BITMAP
0C00
1400
0C00
0000
1C00
3400
6600
4600
C620
C440
CC40
DC80
E700
ENDCHAR
STARTCHAR 00E6
ENCODING 230
SWIDTH 585 0
DWIDTH 13 0
BBX 15 10 0 -1
BITMAP
1CE0
3520
6760
4640
C782
C704
CE08
DE30
F3E0
0100
ENDCHAR
STARTCHAR 00E7
ENCODING 231
SWIDTH 360 0
DWIDTH 8 0
BBX 10 14 0 -5
BITMAP
1C00
7400
6C00
C800
C040
8080
8100
C600
7C00
3000
6000
1800
1800
6000
ENDCHAR
STARTCHAR 00E8
ENCODING 232
SWIDTH 360 0
DWIDTH 8 0
BBX 10 14 0 -1
BITMAP
1800
1C00
0400
0000
1C00
3400
6400
4800
D040
E080
C100
C200
7C00
2000
ENDCHAR
STARTCHAR 00E9
ENCODING 233
SWIDTH 360 0
DWIDTH 8 0
BBX 10 14 0 -1
BITMAP
0600
0E00
1800
0000
1C00
3400
6400
4800
D040
E080
C100
C200
7C00
2000
ENDCHAR
STARTCHAR 00EA
ENCODING 234
SWIDTH 360 0
DWIDTH 8 0
BBX 10 14 0 -1
BITMAP
0C00
1600
2100
0000
1C00
3400
6400
4800
D040
E080
C100
C200
7C00
2000
ENDCHAR
STARTCHAR 00EB
ENCODING 235
SWIDTH 360 0
DWIDTH 8 0
BBX 10 13 0 -1
BITMAP
3700
0000
0000
1C00
3400
6400
4800
D040
E080
C100
C200
7C00
2000
ENDCHAR
STARTCHAR 00EC
ENCODING 236
SWIDTH 270 0
DWIDTH 6 0
BBX 8 13 0 0
BITMAP
C0
70
10
00
10
60
60
60
41
42
C4
D8
70
ENDCHAR
STARTCHAR 00ED
ENCODING 237
SWIDTH 270 0
DWIDTH 6 0
BBX 8 13 0 0
BITMAP
04
0C
10
00
10
60
60
60
41
42
C4
D8
70
ENDCHAR
STARTCHAR 00EE
ENCODING 238
SWIDTH 270 0
DWIDTH 6 0
BBX 8 13 0 0
BITMAP
38
6C
80
00
10
60
60
60
41
42
C4
D8
70
ENDCHAR
STARTCHAR 00EF
ENCODING 239
SWIDTH 270 0
DWIDTH 6 0
BBX 8 12 0 0
BITMAP
EC
00
00
10
60
60
60
41
42
C4
D8
70
ENDCHAR
STARTCHAR 00F0
ENCODING 240
SWIDTH 405 0
DWIDTH 9 0
BBX 11 15 0 0
BITMAP
0800
0400
0480
0F80
1A00
0200
1A00
7E00
6620
E6C0
E700
BE00
8C00
CC00
F800
ENDCHAR
STARTCHAR 00F1
ENCODING 241
SWIDTH 450 0
DWIDTH 10 0
BBX 12 13 0 -1
BITMAP
0080
3F80
0000
0200
6F00
7300
6300
6610
4620
C640
C480
C700
0200
ENDCHAR
STARTCHAR 00F2
ENCODING 242
SWIDTH 405 0
DWIDTH 9 0
BBX 11 13 0 0
BITMAP
1800
1C00
0400
0000
1800
7C00
6420
E6C0
E700
BE00
8C00
CC00
F800
ENDCHAR
STARTCHAR 00F3
ENCODING 243
SWIDTH 405 0
DWIDTH 9 0
BBX 11 13 0 0
BITMAP
0600
0E00
1800
0000
1800
7C00
6420
E6C0
E700
BE00
8C00
CC00
F800
ENDCHAR
STARTCHAR 00F4
ENCODING 244
SWIDTH 405 0
DWIDTH 9 0
BBX 11 13 0 0
BITMAP
1C00
3400
4200
0000
1800
7C00
6420
E6C0
E700
BE00
8C00
CC00
F800
ENDCHAR
STARTCHAR 00F5
ENCODING 245
SWIDTH 405 0
DWIDTH 9 0
BBX 11 12 0 0
BITMAP
0100
7F00
0000
1800
7C00
6420
E6C0
E700
BE00
8C00
CC00
F800
ENDCHAR
STARTCHAR 00F6
ENCODING 246
SWIDTH 405 0
DWIDTH 9 0
BBX 11 11 0 0
BITMAP
3700
0000
1800
7C00
6420
E6C0
E700
BE00
8C00
CC00
F800
ENDCHAR
STARTCHAR 00F7
ENCODING 247
SWIDTH 360 0
DWIDTH 8 0
BBX 8 7 0 4
BITMAP
1C
00
7F
FE
00
30
30
ENDCHAR
STARTCHAR 00F8
ENCODING 248
SWIDTH 405 0
DWIDTH 9 0
BBX 12 12 -1 -2
BITMAP
0080
0D00
1B00
3310
3320
7BC0
6F00
6200
6600
7C00
C000
8000
ENDCHAR
STARTCHAR 00F9
ENCODING 249
SWIDTH 450 0
DWIDTH 10 0
BBX 12 13 0 0
BITMAP
1800
1C00
0600
0000
0000
6300
6300
4710
C610
C620
C640
CEC0
7B80
ENDCHAR
STARTCHAR 00FA
ENCODING 250
SWIDTH 450 0
DWIDTH 10 0
BBX 12 13 0 0
BITMAP
0200
0E00
1800
0000
0000
6300
6300
4710
C610
C620
C640
CEC0
7B80
ENDCHAR
STARTCHAR 00FB
ENCODING 251
SWIDTH 450 0
DWIDTH 10 0
BBX 12 12 0 0
BITMAP
0E00
1A00
2100
0000
6300
6300
4710
C610
C620
C640
CEC0
7B80
ENDCHAR
STARTCHAR 00FC
ENCODING 252
SWIDTH 450 0
DWIDTH 10 0
BBX 12 12 0 0
BITMAP
1B00
0000
0000
0000
6300
6300
4710
C610
C620
C640
CEC0
7B80
ENDCHAR
STARTCHAR 00FD
ENCODING 253
SWIDTH 405 0
DWIDTH 9 0
BBX 8 22 0 -9
BITMAP
03
06
0C
00
00
63
63
C2
C6
C6
8E
9C
F4
6C
0C
08
08
18
18
18
30
30
ENDCHAR
STARTCHAR 00FE
ENCODING 254
SWIDTH 450 0
DWIDTH 10 0
BBX 14 24 -2 -9
BITMAP
0600
0600
0600
0600
0C00
0C00
0C80
0BC0
1CC0
18C0
18CC
1088
3190
3F20
2FC0
2C00
6000
6000
6000
4000
C000
C000
C000
C000
ENDCHAR
STARTCHAR 00FF
ENCODING 255
SWIDTH 405 0
DWIDTH 9 0
BBX 8 21 0 -9
BITMAP
37
00
00
00
63
63
C2
C6
C6
8E
9C
F4
6C
0C
08
08
18
18
18
30
30
ENDCHAR
STARTCHAR 0131
ENCODING 305
SWIDTH 270 0
DWIDTH 6 0
BBX 8 9 0 0
BITMAP
10
60
60
60
41
42
C4
D8
70
ENDCHAR
STARTCHAR 0141
ENCODING 321
SWIDTH 495 0
DWIDTH 11 0
BBX 14 20 -2 -4
BITMAP
0038
007C
006C
00C8
00D8
00F0
01E0
1FC0
0F80
0180
03E0
0FC0
1F00
0200
0600
0400
7C00
FE10
F7F0
41E0
ENDCHAR
STARTCHAR 0142
ENCODING 322
SWIDTH 225 0
DWIDTH 5 0
BBX 7 15 -1 0
BITMAP
0C
0C
0C
18
18
18
3E
F8
B0
30
20
60
60
60
40
ENDCHAR
STARTCHAR 0152
ENCODING 338
SWIDTH 900 0
DWIDTH 20 0
BBX 21 20 0 -4
BITMAP
07C3F0
0F6610
0E6C18
187810
307830
307870
307820
607800
607800
606F80
607F00
C07000
C06000
C0E000
C0C020
C1C040
C1E040
636080
667F00
3C1E00
ENDCHAR
STARTCHAR 0153
ENCODING 339
SWIDTH 585 0
DWIDTH 13 0
BBX 15 10 0 -1
BITMAP
18E0
7D20
6760
E640
F782
9F04
8E08
CE30
FBE0
0100
ENDCHAR
STARTCHAR 0160
ENCODING 352
SWIDTH 450 0
DWIDTH 10 0
BBX 14 24 -1 -4
BITMAP
01DC
0070
0040
0000
07E0
0E30
1830
1830
1830
1860
1800
1C00
0E00
0700
0300
0380
0180
0180
6180
C180
C100
E300
6600
7C00
ENDCHAR
STARTCHAR 0161
ENCODING 353
SWIDTH 360 0
DWIDTH 8 0
BBX 8 15 0 -1
BITMAP
33
1C
08
00
18
38
30
30
58
48
8C
4C
6C
78
30
ENDCHAR
STARTCHAR 0178
ENCODING 376
SWIDTH 540 0
DWIDTH 12 0
BBX 13 23 0 -4
BITMAP
0370
0000
0000
1C38
1830
1830
3070
3060
3060
3060
6040
60C0
60C0
61C0
6380
6680
7C80
0180
0100
0300
6600
FE00
7800
ENDCHAR
STARTCHAR 017D
ENCODING 381
SWIDTH 450 0
DWIDTH 10 0
BBX 14 24 -2 -4
BITMAP
00DC
0070
0060
0000
0FF8
0FF8
0818
0030
0030
0060
00E0
00C0
0180
0300
0600
0E00
1C00
1800
3000
2000
6000
CFC0
FFC0
6180
ENDCHAR
STARTCHAR 017E
ENCODING 382
SWIDTH 360 0
DWIDTH 8 0
BBX 12 23 -3 -10
BITMAP
0660
0380
0100
0000
0780
1F80
1180
0100
0300
0610
0F20
1D40
0980
0700
1900
3300
6200
4600
C600
CC00
D800
F800
2000
ENDCHAR
STARTCHAR 02C6
ENCODING 710
SWIDTH 540 0
DWIDTH 12 0
BBX 7 2 4 13
BITMAP
18
EE
ENDCHAR
STARTCHAR 02C7
ENCODING 711
SWIDTH 540 0
DWIDTH 12 0
BBX 7 3 4 12
BITMAP
EE
38
20
ENDCHAR
STARTCHAR 02D8
ENCODING 728
SWIDTH 540 0
DWIDTH 12 0
BBX 5 3 5 12
BITMAP
88
98
F0
ENDCHAR
STARTCHAR 02D9
ENCODING 729
SWIDTH 540 0
DWIDTH 12 0
BBX 3 1 6 13
BITMAP
E0
ENDCHAR
STARTCHAR 02DA
ENCODING 730
SWIDTH 540 0
DWIDTH 12 0
BBX 3 3 6 12
BITMAP
60
A0
E0
ENDCHAR
STARTCHAR 02DB
ENCODING 731
SWIDTH 540 0
DWIDTH 12 0
BBX 5 3 5 -3
BITMAP
40
88
F0
ENDCHAR
STARTCHAR 02DC
ENCODING 732
SWIDTH 540 0
DWIDTH 12 0
BBX 7 2 4 13
BITMAP
02
FE
ENDCHAR
STARTCHAR 02DD
ENCODING 733
SWIDTH 540 0
DWIDTH 12 0
BBX 7 3 4 12
BITMAP
32
6E
D8
ENDCHAR
STARTCHAR 2013
ENCODING 8211
SWIDTH 360 0
DWIDTH 8 0
BBX 7 2 0 6
BITMAP
7E
FE
ENDCHAR
STARTCHAR 2014
ENCODING 8212
SWIDTH 495 0
DWIDTH 11 0
BBX 11 2 0 6
BITMAP
FFC0
FFE0
ENDCHAR
STARTCHAR 2018
ENCODING 8216
SWIDTH 135 0
DWIDTH 3 0
BBX 3 5 1 10
BITMAP
40
40
C0
E0
C0
ENDCHAR
STARTCHAR 2019
ENCODING 8217
SWIDTH 135 0
DWIDTH 3 0
BBX 3 5 1 10
BITMAP
60
E0
60
40
80
ENDCHAR
STARTCHAR 201A
ENCODING 8218
SWIDTH 180 0
DWIDTH 4 0
BBX 3 5 -1 -3
BITMAP
E0
E0
40
40
80
ENDCHAR
STARTCHAR 201C
ENCODING 8220
SWIDTH 270 0
DWIDTH 6 0
BBX 6 5 1 10
BITMAP
48
48
D8
FC
D8
ENDCHAR
STARTCHAR 201D
ENCODING 8221
SWIDTH 270 0
DWIDTH 6 0
BBX 6 5 1 10
BITMAP
6C
FC
6C
48
90
ENDCHAR
STARTCHAR 201E
ENCODING 8222
SWIDTH 315 0
DWIDTH 7 0
BBX 6 5 -1 -3
BITMAP
FC
FC
48
48
90
ENDCHAR
STARTCHAR 2022
ENCODING 8226
SWIDTH 180 0
DWIDTH 4 0
BBX 3 5 0 4
BITMAP
60
E0
E0
E0
E0
ENDCHAR
STARTCHAR 2026
ENCODING 8230
SWIDTH 630 0
DWIDTH 14 0
BBX 12 3 -1 -1
BITMAP
2230
E770
4420
ENDCHAR
STARTCHAR 2030
ENCODING 8240
SWIDTH 855 0
DWIDTH 19 0
BBX 18 16 0 0
BITMAP
181800
343000
666000
464000
44C000
4D8000
790000
320000
060000
0CE380
0936C0
1B34C0
333CC0
322CC0
636D80
C3C700
ENDCHAR
STARTCHAR 2039
ENCODING 8249
SWIDTH 180 0
DWIDTH 4 0
BBX 5 9 -1 0
BITMAP
08
18
30
60
C0
C0
60
20
30
ENDCHAR
STARTCHAR 203A
ENCODING 8250
SWIDTH 180 0
DWIDTH 4 0
BBX 6 9 -2 0
BITMAP
20
30
10
18
0C
18
10
20
C0
ENDCHAR
STARTCHAR 2044
ENCODING 8260
SWIDTH 585 0
DWIDTH 13 0
BBX 12 16 1 0
BITMAP
0030
0020
0060
00C0
0080
0100
0300
0600
0400
0C00
1800
1000
3000
6000
6000
C000
ENDCHAR
STARTCHAR 20AC
ENCODING 8364
SWIDTH 315 0
DWIDTH 7 0
BBX 9 13 -1 1
BITMAP
0780
0C80
1800
1800
3000
7E00
2200
FC00
6000
2000
2300
3600
0800
ENDCHAR
STARTCHAR 2212
ENCODING 8722
SWIDTH 360 0
DWIDTH 8 0
BBX 7 2 0 6
BITMAP
7E
FE
ENDCHAR
STARTCHAR FB01
ENCODING 64257
SWIDTH 540 0
DWIDTH 12 0
BBX 16 25 -2 -10
BITMAP
0600
0618
0618
0600
0600
0400
0C10
0C30
0860
1FE0
3861
3042
3044
3848
2C70
2600
6200
6200
6200
4600
C600
CC00
CC00
F800
F000
ENDCHAR
STARTCHAR FB02
ENCODING 64258
SWIDTH 495 0
DWIDTH 11 0
BBX 13 25 -2 -10
BITMAP
0618
0618
0618
0618
0618
0430
0C30
0C30
0830
1FE0
3860
3060
3060
38C0
2CC0
2600
6200
6200
6200
4600
C600
CC00
CC00
F800
F000
ENDCHAR
ENDFONT
